# AST/ASF file generated using VICON BodyLanguage
# -----------------------------------------------
:version 1.10
:name VICON
:units
  mass 1.0
  length 0.45
  angle deg
:documentation
   .ast/.asf automatically generated from VICON data using
   VICON BodyBuilder and BodyLanguage model FoxedUp or BRILLIANT.MOD
:root
   order TX TY TZ RX RY RZ
   axis XYZ
   position 0 0 0  
   orientation 0 0 0 
:bonedata
  begin
     id 1 
     name lhipjoint
     direction 0.682418 -0.694059 0.22932 
     length 2.25561 
     axis 0 0 0  XYZ
  end
  begin
     id 2 
     name lfemur
     direction 0.34202 -0.939693 0  
     length 6.96448  
     axis 0 0 20  XYZ
    dof rx ry rz
    limits (-160.0 20.0)
           (-70.0 70.0)
           (-60.0 70.0)
  end
  begin
     id 3 
     name ltibia
     direction 0.34202 -0.939693 0   
     length 6.88553   
     axis 0 0 20   XYZ
    dof rx
    limits (-10.0 170.0)
  end
  begin
     id 4 
     name lfoot
     direction 0.0723587 -0.198804 0.977364   
     length 1.88518   
     axis -90 7.62852e-016 20   XYZ
    dof rx rz
    limits (-45.0 90.0)
           (-70.0 20.0)
  end
  begin
     id 5 
     name ltoes
     direction 1.53558e-011 -4.21962e-011 1   
     length 0.952124   
     axis -90 7.62852e-016 20   XYZ
    dof rx
    limits (-90.0 20.0)
  end
  begin
     id 6 
     name rhipjoint
     direction -0.657603 -0.71533 0.236348   
     length 2.18854  
     axis 0 0 0  XYZ 
  end
  begin
     id 7 
     name rfemur
     direction -0.34202 -0.939693 0   
     length 6.86686   
     axis 0 0 -20   XYZ
    dof rx ry rz
    limits (-160.0 20.0)
           (-70.0 70.0)
           (-70.0 60.0)
  end
  begin
     id 8 
     name rtibia
     direction -0.34202 -0.939693 0   
     length 6.59503   
     axis 0 0 -20   XYZ
    dof rx
    limits (-10.0 170.0)
 end
 begin
     id 9 
     name rfoot
     direction -0.101977 -0.280179 0.954516   
     length 1.93723  
     axis -90 -7.62852e-016 -20   XYZ
    dof rx rz
    limits (-45.0 90.0)
           (-20.0 70.0)
  end
  begin
     id 10 
     name rtoes
     direction -1.53564e-011 -4.21897e-011 1   
     length 0.970315   
     axis -90 -7.62852e-016 -20   XYZ
    dof rx
    limits (-90.0 20.0)
  end
  begin
     id 11 
     name lowerback
     direction -0.0339559 0.999421 -0.00235966   
     length 1.88543   
     axis 0 0 0   XYZ
    dof rx ry rz
    limits (-20.0 45.0)
           (-30.0 30.0)
           (-30.0 30.0)
  end
  begin
     id 12 
     name upperback
     direction 0.00401003 0.999739 0.0224689   
     length 1.8856   
     axis 0 0 0   XYZ
    dof rx ry rz
    limits (-20.0 45.0)
           (-30.0 30.0)
           (-30.0 30.0)
  end
  begin
     id 13 
     name thorax
     direction 0.0198619 0.999546 0.0226536   
     length 1.88352   
     axis 0 0 0   XYZ
    dof rx ry rz
    limits (-20.0 45.0)
           (-30.0 30.0)
           (-30.0 30.0)
  end
  begin
     id 14 
     name lowerneck
     direction -0.0461848 0.998632 0.0245198   
     length 1.34895   
     axis 0 0 0   XYZ
    dof rx ry rz
    limits (-20.0 45.0)
           (-30.0 30.0)
           (-30.0 30.0)
  end
  begin
     id 15 
     name upperneck
     direction -0.0180627 0.994724 -0.100984   
     length 1.35214   
     axis 0 0 0   XYZ
    dof rx ry rz
    limits (-20.0 45.0)
           (-30.0 30.0)
           (-30.0 30.0)
  end
  begin
     id 16
     name head
     direction -0.00374772 0.999293 -0.037403  
     length 1.3568  
     axis 0 0 0   XYZ
    dof rx ry rz
    limits (-20.0 45.0)
           (-30.0 30.0)
           (-30.0 30.0)
  end
  begin
     id 17 
     name lclavicle
     direction 0.971773 0.191119 0.138311  
     length 2.84954  
     axis 0 0 0   XYZ
    dof ry rz
    limits (-20.0 10.0)
           (0.0 20.0)
  end
  begin
     id 18 
     name lhumerus
     direction 1 -4.4897e-011 -2.43761e-027   
     length 4.40919   
     axis 180 -30 -90   XYZ
    dof rx ry rz
    limits (-60.0 90.0)
           (-90.0 90.0)
           (-90.0 90.0)
  end
  begin
     id 19
     name lradius
     direction 1 -4.4896e-011 -9.1621e-027   
     length 3.03857   
     axis 180 -30 -90   XYZ
    dof rx
    limits (-10.0 170.0)
  end
  begin
     id 20
     name lwrist
     direction 1 -4.4896e-011 -1.41363e-026   
     length 1.51928   
     axis 1.07133e-014 90 90   XYZ
    dof ry
    limits (-180.0 0.0)
 end
  begin
     id 21 
     name lhand
     direction 1 -4.48978e-011 -2.82725e-026   
     length 0.523208   
     axis 1.80403e-014 90 90   XYZ
    dof rx rz
    limits (-90.0 90.0)
           (-45.0 45.0)
  end
  begin
     id 22 
     name lfingers
     direction 1 -4.48977e-011 -5.6545e-026   
     length 0.421824   
     axis 3.60806e-014 90 90   XYZ
    dof rx
    limits (0.0 90.0)
  end
  begin
     id 23
     name lthumb
     direction 0.707107 -6.34962e-011 0.707107   
     length 0.605657   
     axis -90 45 2.85299e-015   XYZ
    dof rx rz
    limits (-45.0 45.0)
           (-45.0 45.0)
  end
  begin
     id 24 
     name rclavicle
     direction -0.957247 0.24311 0.156766   
     length 3.12406  
     axis 0 0 0   XYZ 
    dof ry rz
    limits (-10.0 20.0)
           (-20.0 0.0)
  end
  begin
     id 25 
     name rhumerus
     direction -1 -4.48964e-011 -1.70632e-027  
     length 4.61969   
     axis 180 30 90   XYZ
    dof rx ry rz
    limits (-90.0 60.0)
           (-90.0 90.0)
           (-90.0 90.0)
  end
  begin
     id 26 
     name rradius
     direction -1 -4.48966e-011 -6.60395e-027   
     length 3.09382   
     axis 180 30 90   XYZ
    dof rx
    limits (-10.0 170.0)
  end
  begin
     id 27 
     name rwrist
     direction -1 -4.48963e-011 -1.41363e-026   
     length 1.54691   
     axis 1.07133e-014 -90 -90   XYZ
    dof ry
    limits (-180.0 0.0)
  end
  begin
     id 28
     name rhand
     direction -1 -4.49013e-011 -2.82725e-026   
     length 0.500896   
     axis 1.80403e-014 -90 -90   XYZ
    dof rx rz
    limits (-90.0 90.0)
           (-45.0 45.0)
  end
  begin
     id 29
     name rfingers
     direction -1 -4.48902e-011 -5.6545e-026   
     length 0.403835   
     axis 3.60806e-014 -90 -90   XYZ
    dof rx
    limits (0.0 90.0)
  end
  begin
     id 30
     name rthumb
     direction -0.707107 -6.34953e-011 0.707107   
     length 0.579829   
     axis -90 -45 -2.85299e-015   XYZ
    dof rx rz
    limits (-45.0 45.0)
           (-45.0 45.0)
  end
:hierarchy
  begin
    root lhipjoint rhipjoint lowerback
    lhipjoint lfemur
    lfemur ltibia
    ltibia lfoot
    lfoot ltoes
    rhipjoint rfemur
    rfemur rtibia
    rtibia rfoot
    rfoot rtoes
    lowerback upperback
    upperback thorax
    thorax lowerneck lclavicle rclavicle
    lowerneck upperneck
    upperneck head
    lclavicle lhumerus
    lhumerus lradius
    lradius lwrist
    lwrist lhand lthumb
    lhand lfingers
    rclavicle rhumerus
    rhumerus rradius
    rradius rwrist
    rwrist rhand rthumb
    rhand rfingers
  end

#!OML:ASF E:\madness\Project 1\Capture day 1\Session 1\Female1.ASF
:FULLY-SPECIFIED
:DEGREES
940
root -1.6843 15.9575 3.09515 -167.665 -57.7577 181.842
lowerback -1.92032 -1.62745 -4.35413
upperback -2.82305 -2.18199 1.63757
thorax -1.60655 -1.02064 4.11648
lowerneck -2.42945 -1.15932 -1.361
upperneck 25.0445 -2.2605 -2.70175
head 8.11211 -1.95628 -0.9117
rclavicle 1.01753e-014 -2.36554e-014
rhumerus -62.4429 -23.244 -52.8575
rradius 48.1639
rwrist 1.47503
rhand -13.7712 -44.5016
rfingers 7.12502
rthumb 12.3497 -74.1169
lclavicle 1.01753e-014 -2.36554e-014
lhumerus -45.1072 7.79387 80.1258
lradius 74.4076
lwrist -7.84855
lhand -31.6583 -12.9303
lfingers 7.12502
lthumb -4.91879 16.9926
rfemur -29.498 4.67442 14.6012
rtibia 73.319
rfoot 4.82449 3.02394
rtoes 7.03906
lfemur -24.1451 -3.14873 -24.6188
ltibia 34.0201
lfoot -20.4115 6.40154
ltoes 22.1927
941
root -1.6917 15.9682 3.0871 -167.922 -58.0526 181.981
lowerback -1.57846 -1.64476 -4.35951
upperback -2.88841 -2.21978 1.6588
thorax -1.86111 -1.03116 4.15395
lowerneck -2.27073 -1.18198 -1.51159
upperneck 24.9353 -2.33624 -2.4286
head 8.05157 -1.97728 -0.796222
rclavicle -1.19904e-013 1.64991e-014
rhumerus -62.6591 -23.4303 -52.9634
rradius 48.0075
rwrist 1.46255
rhand -13.6269 -44.2057
rfingers 7.12502
rthumb 12.4888 -73.8125
lclavicle -1.19904e-013 1.64991e-014
lhumerus -44.8255 7.55048 80.4552
lradius 73.7601
lwrist -7.92715
lhand -31.6103 -13.1218
lfingers 7.12502
lthumb -4.87248 16.8022
rfemur -30.7793 4.25287 14.8878
rtibia 74.0368
rfoot 5.06996 3.28023
rtoes 6.31593
lfemur -23.8283 -3.10543 -24.4787
ltibia 33.5986
lfoot -20.1275 6.15885
ltoes 21.2161
942
root -1.71555 15.984 3.07724 -167.976 -58.1276 181.923
lowerback -1.48588 -1.71769 -4.46484
upperback -2.91174 -2.32145 1.64561
thorax -1.92365 -1.07796 4.20266
lowerneck -2.73623 -1.20865 -1.10015
upperneck 25.3603 -2.29798 -2.98844
head 8.26753 -1.98678 -1.0661
rclavicle 1.69712e-014 1.0635e-014
rhumerus -62.6213 -23.3927 -53.3151
rradius 47.8046
rwrist 1.39384
rhand -13.319 -43.6654
rfingers 7.12502
rthumb 12.7857 -73.2539
lclavicle 1.69712e-014 1.0635e-014
lhumerus -44.6314 7.60124 80.6536
lradius 73.0901
lwrist -8.01248
lhand -31.699 -13.0838
lfingers 7.12502
lthumb -4.95808 16.8382
rfemur -32.0298 4.03874 14.9568
rtibia 74.6276
rfoot 5.30223 3.5504
rtoes 5.55684
lfemur -23.4232 -2.96531 -24.5502
ltibia 33.1543
lfoot -19.7528 6.22105
ltoes 19.4694
943
root -1.74208 16.0024 3.067 -168.08 -58.2085 182.057
lowerback -1.51546 -1.75238 -4.44108
upperback -2.97279 -2.36938 1.67407
thorax -1.96494 -1.10092 4.21891
lowerneck -2.37709 -1.13418 -1.29638
upperneck 25.0024 -2.23216 -2.69604
head 8.08757 -1.93598 -0.917148
rclavicle 2.65129e-014 1.00386e-014
rhumerus -62.623 -23.1823 -53.6723
rradius 47.6455
rwrist 1.1205
rhand -13.6991 -43.9048
rfingers 7.12502
rthumb 12.4192 -73.5159
lclavicle 2.65129e-014 1.00386e-014
lhumerus -44.4511 7.66993 80.9481
lradius 72.4653
lwrist -8.37362
lhand -31.7733 -12.6889
lfingers 7.12502
lthumb -5.02989 17.2314
rfemur -33.347 3.82273 15.1054
rtibia 75.153
rfoot 5.36776 3.84496
rtoes 4.32843
lfemur -23.1544 -3.02966 -24.4766
ltibia 32.8103
lfoot -19.5383 6.27709
ltoes 18.4177
944
root -1.76439 16.0136 3.05571 -168.337 -58.4291 182.193
lowerback -1.35996 -1.74208 -4.36117
upperback -3.00518 -2.36264 1.67033
thorax -2.08941 -1.09522 4.1764
lowerneck -2.1863 -1.11531 -1.30138
upperneck 24.8816 -2.23071 -2.58326
head 8.01357 -1.92218 -0.87349
rclavicle -1.31943e-013 4.96962e-015
rhumerus -62.7946 -23.12 -53.8249
rradius 47.4318
rwrist 0.990567
rhand -13.4756 -44.1922
rfingers 7.12502
rthumb 12.6347 -73.79
lclavicle -1.31943e-013 4.96962e-015
lhumerus -44.17 7.50844 81.2856
lradius 71.7791
lwrist -8.72978
lhand -31.7339 -12.561
lfingers 7.12502
lthumb -4.99178 17.3602
rfemur -34.4703 3.52117 15.2901
rtibia 75.5678
rfoot 5.34291 4.10989
rtoes 2.66448
lfemur -22.754 -3.08502 -24.3698
ltibia 32.4422
lfoot -19.4873 5.92019
ltoes 19.1902
945
root -1.79196 16.024 3.04249 -168.905 -58.5203 182.471
lowerback -1.0365 -1.75473 -4.28615
upperback -3.01827 -2.39063 1.71268
thorax -2.28275 -1.10425 4.19011
lowerneck -2.28495 -1.09443 -1.21132
upperneck 25.0943 -2.21914 -2.60357
head 8.10214 -1.91936 -0.900759
rclavicle -2.94326e-014 -1.46107e-014
rhumerus -62.8815 -23.0457 -53.9377
rradius 47.1731
rwrist 1.26365
rhand -13.2493 -44.4198
rfingers 7.12502
rthumb 12.8529 -74.0041
lclavicle -2.94326e-014 -1.46107e-014
lhumerus -44.0836 7.56681 81.5002
lradius 71.1623
lwrist -8.7834
lhand -31.8151 -12.8584
lfingers 7.12502
lthumb -5.07022 17.0609
rfemur -35.2825 3.45595 15.492
rtibia 75.8426
rfoot 5.37995 4.21944
rtoes 2.6321
lfemur -22.0917 -3.08071 -24.2283
ltibia 32.0742
lfoot -19.3765 5.75073
ltoes 20.1587
946
root -1.82287 16.0418 3.02834 -169.551 -58.5883 182.901
lowerback -0.783547 -1.83698 -4.21736
upperback -3.03249 -2.50769 1.84474
thorax -2.42465 -1.15868 4.29866
lowerneck -2.41237 -0.981323 -1.04379
upperneck 25.3573 -2.05381 -2.80119
head 8.21151 -1.85679 -0.990795
rclavicle 2.47984e-014 1.18277e-014
rhumerus -62.7048 -22.7693 -54.2684
rradius 46.9039
rwrist 1.42323
rhand -13.9481 -44.8966
rfingers 7.12502
rthumb 12.1792 -74.522
lclavicle 2.47984e-014 1.18277e-014
lhumerus -44.1161 7.98751 81.6686
lradius 70.6417
lwrist -8.7123
lhand -31.9627 -13.263
lfingers 7.12502
lthumb -5.21273 16.6529
rfemur -36.0552 3.44562 15.7308
rtibia 75.9822
rfoot 5.42476 4.32931
rtoes 3.5659
lfemur -21.4425 -3.22826 -24.0072
ltibia 31.7157
lfoot -19.2316 5.81798
ltoes 20.638
947
root -1.85261 16.0585 3.01209 -169.947 -58.697 183.035
lowerback -0.642717 -1.86929 -4.20831
upperback -2.95107 -2.55159 1.86185
thorax -2.41445 -1.18095 4.31483
lowerneck -2.59278 -0.938165 -0.868196
upperneck 25.5593 -1.9617 -3.04902
head 8.30918 -1.82729 -1.10373
rclavicle -2.35933e-014 -2.04748e-014
rhumerus -62.5594 -22.547 -54.7795
rradius 46.7776
rwrist 1.20754
rhand -14.4261 -45.4489
rfingers 7.12502
rthumb 11.7182 -75.1012
lclavicle -2.35933e-014 -2.04748e-014
lhumerus -43.8764 8.08517 81.9022
lradius 69.9442
lwrist -8.49216
lhand -32.0568 -13.5333
lfingers 7.12502
lthumb -5.30362 16.3803
rfemur -36.8242 3.36083 15.7767
rtibia 76.0513
rfoot 5.4339 4.53698
rtoes 4.10747
lfemur -20.7713 -3.31682 -23.9768
ltibia 31.3405
lfoot -19.0723 6.07181
ltoes 19.2058
948
root -1.88532 16.0702 2.99223 -170.104 -58.7331 182.973
lowerback -0.6785 -1.78627 -4.24901
upperback -2.87328 -2.43718 1.79334
thorax -2.32701 -1.12612 4.26262
lowerneck -2.56656 -1.00955 -0.864004
upperneck 25.511 -2.05172 -3.06422
head 8.28654 -1.86726 -1.11466
rclavicle -6.54002e-014 -8.74653e-015
rhumerus -62.7076 -22.6555 -54.9717
rradius 46.6961
rwrist 1.26142
rhand -14.1095 -45.2815
rfingers 7.12502
rthumb 12.0235 -74.9161
lclavicle -6.54002e-014 -8.74653e-015
lhumerus -43.6125 7.71255 82.2471
lradius 69.2571
lwrist -8.35607
lhand -32.3412 -13.3323
lfingers 7.12502
lthumb -5.57819 16.5742
rfemur -37.7264 3.43231 15.7114
rtibia 76.0679
rfoot 5.48151 4.56106
rtoes 4.86817
lfemur -20.1956 -3.21769 -24.0551
ltibia 30.9641
lfoot -18.863 6.26737
ltoes 17.4657
949
root -1.91175 16.0878 2.97874 -170.405 -58.9675 183.125
lowerback -0.558616 -1.81255 -4.21845
upperback -2.85191 -2.47479 1.81503
thorax -2.36858 -1.14407 4.2721
lowerneck -2.51532 -1.03886 -0.86136
upperneck 25.3927 -2.09245 -3.02213
head 8.23669 -1.87664 -1.10047
rclavicle 3.49613e-014 -3.18055e-015
rhumerus -62.7999 -22.9108 -54.8993
rradius 46.4937
rwrist 1.73769
rhand -13.3805 -44.1769
rfingers 7.12502
rthumb 12.7264 -73.7691
lclavicle 3.49613e-014 -3.18055e-015
lhumerus -43.5164 7.69785 82.4836
lradius 68.7638
lwrist -8.8233
lhand -32.7639 -13.1157
lfingers 7.12502
lthumb -5.98628 16.7797
rfemur -38.6232 3.31951 15.7599
rtibia 75.9839
rfoot 5.41228 4.59401
rtoes 5.23229
lfemur -19.7161 -3.39983 -23.95
ltibia 30.5638
lfoot -18.7109 5.92608
ltoes 19.2045
950
root -1.94609 16.1067 2.96409 -170.817 -59.1004 183.545
lowerback -0.698584 -1.91704 -4.03559
upperback -2.80832 -2.60628 1.86353
thorax -2.23595 -1.21784 4.21321
lowerneck -2.65544 -0.964802 -0.612864
upperneck 25.435 -1.97486 -3.17609
head 8.27282 -1.81303 -1.18836
rclavicle -7.08667e-014 -2.5842e-015
rhumerus -62.5784 -22.9375 -55.1667
rradius 46.2618
rwrist 2.02648
rhand -13.2457 -43.5079
rfingers 7.12502
rthumb 12.8564 -73.0919
lclavicle -7.08667e-014 -2.5842e-015
lhumerus -43.4323 8.08354 82.4658
lradius 68.2637
lwrist -9.33502
lhand -32.9276 -13.3293
lfingers 7.12502
lthumb -6.14429 16.5616
rfemur -39.6666 3.31247 15.9296
rtibia 75.8105
rfoot 5.30094 4.62328
rtoes 4.48756
lfemur -19.4144 -3.64332 -23.6628
ltibia 30.2106
lfoot -18.5148 5.78575
ltoes 20.4952
951
root -1.97958 16.1245 2.94676 -171.307 -59.1157 183.764
lowerback -0.492141 -1.91343 -4.10267
upperback -2.81647 -2.60741 1.99382
thorax -2.35213 -1.21227 4.39492
lowerneck -2.48086 -0.945857 -0.726817
upperneck 25.4404 -1.94696 -3.20304
head 8.24455 -1.81762 -1.1741
rclavicle 2.12451e-015 -8.15017e-015
rhumerus -62.5523 -22.582 -55.3072
rradius 46.1878
rwrist 1.96263
rhand -13.0843 -43.4919
rfingers 7.12502
rthumb 13.0119 -73.0661
lclavicle 2.12451e-015 -8.15017e-015
lhumerus -43.4519 8.32971 82.7305
lradius 67.6196
lwrist -9.62087
lhand -32.9145 -13.5406
lfingers 7.12502
lthumb -6.13164 16.3507
rfemur -40.3773 3.33063 15.9326
rtibia 75.5467
rfoot 5.22904 4.67056
rtoes 4.20251
lfemur -18.6998 -3.60941 -23.6362
ltibia 29.7774
lfoot -18.211 6.1464
ltoes 18.9938
952
root -2.02924 16.1369 2.94128 -172.451 -59.1075 184.634
lowerback -0.291274 -1.77942 -3.51396
upperback -2.80254 -2.42631 2.17063
thorax -2.48407 -1.13022 4.25253
lowerneck -2.1501 -1.01546 -1.14989
upperneck 25.3373 -2.05823 -3.02
head 8.15613 -1.89293 -1.0426
rclavicle 2.80845e-014 -1.85864e-014
rhumerus -62.7814 -22.2056 -55.1931
rradius 46.2379
rwrist 1.86295
rhand -12.1919 -43.7188
rfingers 7.12502
rthumb 13.8721 -73.2361
lclavicle 2.80845e-014 -1.85864e-014
lhumerus -43.4266 8.26652 83.2378
lradius 66.8507
lwrist -9.86014
lhand -33.1267 -13.5314
lfingers 7.12502
lthumb -6.33653 16.3538
rfemur -40.942 3.541 16.3169
rtibia 75.1675
rfoot 5.10682 4.56323
rtoes 4.15327
lfemur -17.8868 -3.5082 -23.2469
ltibia 29.3695
lfoot -17.9058 6.45319
ltoes 17.9905
953
root -2.04498 16.1573 2.91506 -172.428 -59.5176 184.326
lowerback 0.024634 -1.84193 -3.90377
upperback -2.80151 -2.52229 2.17876
thorax -2.63634 -1.16402 4.49462
lowerneck -2.14645 -1.06277 -1.15717
upperneck 25.2984 -2.11101 -3.04681
head 8.14145 -1.91805 -1.05307
rclavicle 9.89575e-015 3.78188e-014
rhumerus -62.7688 -22.1727 -55.3342
rradius 46.0985
rwrist 1.79008
rhand -12.4284 -44.8013
rfingers 7.12502
rthumb 13.6442 -74.3341
lclavicle 9.89575e-015 3.78188e-014
lhumerus -43.3026 8.08064 83.5055
lradius 66.1427
lwrist -9.91363
lhand -33.4715 -13.6197
lfingers 7.12502
lthumb -6.66939 16.2553
rfemur -41.6036 3.19019 16.0381
rtibia 74.7701
rfoot 4.88268 4.57395
rtoes 3.22455
lfemur -17.2813 -3.84832 -23.4199
ltibia 28.9256
lfoot -17.6994 6.30298
ltoes 18.6397
